# xmcd
# Copyright (C) 1995-1998 Ti Kan
#
# Track frame offsets:
#       150
#       11156
#       26151
#       42466
#       56043
#       68855
#       81984
#       97993
#       112927
#       126620
#       140364
#       156358
#       169996
#       186537
#       206354
#       219198
#       236709
#       252240
#
# Disc length: 3590 seconds
#
# Revision: 0
# Processed by: cddbd v1.5.2PL0 Copyright (c) Steve Scherf et al.
# Submitted via: CD-Transfer v1.0
#
DISCID=0d0e0412
DTITLE=Alpen-Welle - 
DYEAR=1900
DGENRE=
TTITLE0=Alpenwelle
TTITLE1=Aber Dich Gibts Nur Einmal Für Mich
TTITLE2=Depperter Bua
TTITLE3=Weisse Rosen Am Lago Maggiore
TTITLE4=Träumende Klarinetten
TTITLE5=Hey Baby Küss Mich Nochmal
TTITLE6=Fahnen Des Friedens
TTITLE7=S'guggerzytli
TTITLE8=Es Chlis Komplimänt
TTITLE9=Alpenzauber
TTITLE10=Durch Dich
TTITLE11=Made Ion Switzerland
TTITLE12=Chanson Pour Toi
TTITLE13=Müeti, Liebs Müeti
TTITLE14=Zillertaler Polterabend
TTITLE15=Jassu Santorin
TTITLE16=So Es Schön's Panorama
TTITLE17=Santa Maria
EXTD=
EXTT0=
EXTT1=
EXTT2=
EXTT3=
EXTT4=
EXTT5=
EXTT6=
EXTT7=
EXTT8=
EXTT9=
EXTT10=
EXTT11=
EXTT12=
EXTT13=
EXTT14=
EXTT15=
EXTT16=
EXTT17=
PLAYORDER=
